<svg width="343" height="29" viewBox="0 0 343 29" fill="none" xmlns="http://www.w3.org/2000/svg">
<path d="M9.28 28.575V4.975H0V0.574999H23.76V4.975H14.48V28.575H9.28Z" fill="white"/>
<path d="M27.6625 28.575V0.574999H32.8625V28.575H27.6625Z" fill="white"/>
<path d="M40.4359 28.575V0.574999H44.7159L56.9559 21.015H54.7159L66.7559 0.574999H71.0359L71.0759 28.575H66.1559L66.1159 8.295H67.1559L56.9159 25.375H54.5959L44.1959 8.295H45.3959V28.575H40.4359Z" fill="white"/>
<path d="M78.6391 28.575V0.574999H91.7591C95.1191 0.574999 97.6791 1.24167 99.4391 2.575C101.199 3.88167 102.079 5.64167 102.079 7.855C102.079 9.34833 101.732 10.6283 101.039 11.695C100.346 12.735 99.4124 13.5483 98.2391 14.135C97.0924 14.695 95.8391 14.975 94.4791 14.975L95.1991 13.535C96.7724 13.535 98.1857 13.8283 99.4391 14.415C100.692 14.975 101.679 15.8017 102.399 16.895C103.146 17.9883 103.519 19.3483 103.519 20.975C103.519 23.375 102.599 25.2417 100.759 26.575C98.9191 27.9083 96.1857 28.575 92.5591 28.575H78.6391ZM83.8391 24.495H92.2391C94.1857 24.495 95.6791 24.175 96.7191 23.535C97.7591 22.895 98.2791 21.8683 98.2791 20.455C98.2791 19.0683 97.7591 18.055 96.7191 17.415C95.6791 16.7483 94.1857 16.415 92.2391 16.415H83.4391V12.375H91.1991C93.0124 12.375 94.3991 12.055 95.3591 11.415C96.3457 10.775 96.8391 9.815 96.8391 8.535C96.8391 7.22833 96.3457 6.255 95.3591 5.615C94.3991 4.975 93.0124 4.655 91.1991 4.655H83.8391V24.495Z" fill="white"/>
<path d="M113.869 12.215H127.789V16.495H113.869V12.215ZM114.269 24.215H130.069V28.575H109.069V0.574999H129.509V4.935H114.269V24.215Z" fill="white"/>
<path d="M135.866 28.575V0.574999H147.386C149.866 0.574999 151.986 0.974999 153.746 1.775C155.532 2.575 156.906 3.72167 157.866 5.215C158.826 6.70833 159.306 8.48167 159.306 10.535C159.306 12.5883 158.826 14.3617 157.866 15.855C156.906 17.3217 155.532 18.455 153.746 19.255C151.986 20.0283 149.866 20.415 147.386 20.415H138.746L141.066 18.055V28.575H135.866ZM154.186 28.575L147.106 18.415H152.666L159.786 28.575H154.186ZM141.066 18.615L138.746 16.135H147.146C149.439 16.135 151.159 15.6417 152.306 14.655C153.479 13.6683 154.066 12.295 154.066 10.535C154.066 8.74833 153.479 7.375 152.306 6.415C151.159 5.455 149.439 4.975 147.146 4.975H138.746L141.066 2.415V18.615Z" fill="white"/>
<path d="M178.083 28.975C175.95 28.975 173.963 28.6283 172.123 27.935C170.31 27.215 168.723 26.215 167.363 24.935C166.03 23.6283 164.99 22.095 164.243 20.335C163.497 18.575 163.123 16.655 163.123 14.575C163.123 12.495 163.497 10.575 164.243 8.815C164.99 7.055 166.043 5.535 167.403 4.255C168.763 2.94833 170.35 1.94833 172.163 1.255C173.977 0.534999 175.963 0.174999 178.123 0.174999C180.417 0.174999 182.51 0.575 184.403 1.375C186.297 2.14833 187.897 3.30833 189.203 4.855L185.843 8.015C184.83 6.92167 183.697 6.10833 182.443 5.575C181.19 5.015 179.83 4.735 178.363 4.735C176.897 4.735 175.55 4.975 174.323 5.455C173.123 5.935 172.07 6.615 171.163 7.495C170.283 8.375 169.59 9.415 169.083 10.615C168.603 11.815 168.363 13.135 168.363 14.575C168.363 16.015 168.603 17.335 169.083 18.535C169.59 19.735 170.283 20.775 171.163 21.655C172.07 22.535 173.123 23.215 174.323 23.695C175.55 24.175 176.897 24.415 178.363 24.415C179.83 24.415 181.19 24.1483 182.443 23.615C183.697 23.055 184.83 22.215 185.843 21.095L189.203 24.295C187.897 25.815 186.297 26.975 184.403 27.775C182.51 28.575 180.403 28.975 178.083 28.975Z" fill="white"/>
<path d="M194.186 28.575V0.574999H205.706C208.186 0.574999 210.306 0.974999 212.066 1.775C213.853 2.575 215.226 3.72167 216.186 5.215C217.146 6.70833 217.626 8.48167 217.626 10.535C217.626 12.5883 217.146 14.3617 216.186 15.855C215.226 17.3217 213.853 18.455 212.066 19.255C210.306 20.0283 208.186 20.415 205.706 20.415H197.066L199.386 18.055V28.575H194.186ZM212.506 28.575L205.426 18.415H210.986L218.106 28.575H212.506ZM199.386 18.615L197.066 16.135H205.466C207.759 16.135 209.479 15.6417 210.626 14.655C211.799 13.6683 212.386 12.295 212.386 10.535C212.386 8.74833 211.799 7.375 210.626 6.415C209.479 5.455 207.759 4.975 205.466 4.975H197.066L199.386 2.415V18.615Z" fill="white"/>
<path d="M228.244 12.215H242.164V16.495H228.244V12.215ZM228.644 24.215H244.444V28.575H223.444V0.574999H243.884V4.935H228.644V24.215Z" fill="white"/>
<path d="M255.041 12.215H268.961V16.495H255.041V12.215ZM255.441 24.215H271.241V28.575H250.241V0.574999H270.681V4.935H255.441V24.215Z" fill="white"/>
<path d="M281.677 21.975L281.397 15.815L296.078 0.574999H301.918L289.717 13.535L286.837 16.695L281.677 21.975ZM277.038 28.575V0.574999H282.237V28.575H277.038ZM296.557 28.575L285.837 15.815L289.277 12.015L302.638 28.575H296.557Z" fill="white"/>
<path d="M316.11 10.65C315.33 10.65 314.605 10.52 313.935 10.26C313.275 9.99 312.7 9.615 312.21 9.135C311.72 8.655 311.34 8.095 311.07 7.455C310.8 6.805 310.665 6.095 310.665 5.325C310.665 4.555 310.8 3.85 311.07 3.21C311.34 2.56 311.72 1.995 312.21 1.515C312.71 1.035 313.29 0.665 313.95 0.405C314.61 0.135 315.33 0 316.11 0C316.85 0 317.54 0.12 318.18 0.36C318.83 0.6 319.385 0.965 319.845 1.455L319.365 1.95C318.915 1.51 318.415 1.195 317.865 1.005C317.325 0.805 316.75 0.705 316.14 0.705C315.47 0.705 314.845 0.82 314.265 1.05C313.695 1.28 313.195 1.605 312.765 2.025C312.345 2.445 312.015 2.935 311.775 3.495C311.545 4.055 311.43 4.665 311.43 5.325C311.43 5.985 311.545 6.595 311.775 7.155C312.015 7.715 312.345 8.205 312.765 8.625C313.195 9.045 313.695 9.37 314.265 9.6C314.845 9.83 315.47 9.945 316.14 9.945C316.75 9.945 317.325 9.85 317.865 9.66C318.415 9.46 318.915 9.135 319.365 8.685L319.845 9.18C319.385 9.67 318.83 10.04 318.18 10.29C317.54 10.53 316.85 10.65 316.11 10.65Z" fill="white"/>
<path d="M330.192 0.0749999H330.957V10.575H330.192V0.0749999ZM323.172 10.575H322.407V0.0749999H323.172V10.575ZM330.282 5.58H323.082V4.905H330.282V5.58Z" fill="white"/>
<path d="M338.734 10.65C337.434 10.65 336.409 10.27 335.659 9.51C334.909 8.75 334.534 7.62 334.534 6.12V0.0749999H335.299V6.09C335.299 7.4 335.599 8.37 336.199 9C336.799 9.63 337.649 9.945 338.749 9.945C339.839 9.945 340.684 9.63 341.284 9C341.884 8.37 342.184 7.4 342.184 6.09V0.0749999H342.949V6.12C342.949 7.62 342.574 8.75 341.824 9.51C341.074 10.27 340.044 10.65 338.734 10.65Z" fill="white"/>
<path d="M311.67 28.575V18.075H315.435C316.315 18.075 317.07 18.215 317.7 18.495C318.33 18.775 318.815 19.18 319.155 19.71C319.495 20.23 319.665 20.865 319.665 21.615C319.665 22.345 319.495 22.975 319.155 23.505C318.815 24.025 318.33 24.43 317.7 24.72C317.07 25 316.315 25.14 315.435 25.14H312.09L312.435 24.78V28.575H311.67ZM318.96 28.575L316.23 24.765H317.1L319.83 28.575H318.96ZM312.435 24.825L312.09 24.465H315.435C316.565 24.465 317.42 24.215 318 23.715C318.59 23.215 318.885 22.515 318.885 21.615C318.885 20.705 318.59 20.005 318 19.515C317.42 19.015 316.565 18.765 315.435 18.765H312.09L312.435 18.39V24.825Z" fill="white"/>
<path d="M326.906 28.65C326.126 28.65 325.401 28.52 324.731 28.26C324.071 27.99 323.496 27.615 323.006 27.135C322.516 26.655 322.136 26.095 321.866 25.455C321.596 24.805 321.461 24.095 321.461 23.325C321.461 22.555 321.596 21.85 321.866 21.21C322.136 20.56 322.516 19.995 323.006 19.515C323.506 19.035 324.086 18.665 324.746 18.405C325.406 18.135 326.126 18 326.906 18C327.646 18 328.336 18.12 328.976 18.36C329.626 18.6 330.181 18.965 330.641 19.455L330.161 19.95C329.711 19.51 329.211 19.195 328.661 19.005C328.121 18.805 327.546 18.705 326.936 18.705C326.266 18.705 325.641 18.82 325.061 19.05C324.491 19.28 323.991 19.605 323.561 20.025C323.141 20.445 322.811 20.935 322.571 21.495C322.341 22.055 322.226 22.665 322.226 23.325C322.226 23.985 322.341 24.595 322.571 25.155C322.811 25.715 323.141 26.205 323.561 26.625C323.991 27.045 324.491 27.37 325.061 27.6C325.641 27.83 326.266 27.945 326.936 27.945C327.546 27.945 328.121 27.85 328.661 27.66C329.211 27.46 329.711 27.135 330.161 26.685L330.641 27.18C330.181 27.67 329.626 28.04 328.976 28.29C328.336 28.53 327.646 28.65 326.906 28.65Z" fill="white"/>
<path d="M340.988 18.075H341.753V28.575H340.988V18.075ZM333.968 28.575H333.203V18.075H333.968V28.575ZM341.078 23.58H333.878V22.905H341.078V23.58Z" fill="white"/>
</svg>
